<?xml version="1.0" encoding="UTF-8" standalone="no"?>
<svg
   width="64"
   height="64"
   version="1.1"
   id="svg5"
   sodipodi:docname="icon_hicolor_dev.svg"
   inkscape:version="1.4.3 (0d15f75042, 2025-12-25)"
   xml:space="preserve"
   inkscape:export-filename="icon_hicolor_dev-512x.png"
   inkscape:export-xdpi="768"
   inkscape:export-ydpi="768"
   xmlns:inkscape="http://www.inkscape.org/namespaces/inkscape"
   xmlns:sodipodi="http://sodipodi.sourceforge.net/DTD/sodipodi-0.dtd"
   xmlns:xlink="http://www.w3.org/1999/xlink"
   xmlns="http://www.w3.org/2000/svg"
   xmlns:svg="http://www.w3.org/2000/svg"><defs
     id="defs5"><linearGradient
       id="linearGradient2"
       inkscape:collect="always"><stop
         style="stop-color:#6ee1aa;stop-opacity:1;"
         offset="0"
         id="stop12" /><stop
         style="stop-color:#4fbbea;stop-opacity:1;"
         offset="1"
         id="stop14" /></linearGradient><linearGradient
       id="linearGradient1"
       inkscape:collect="always"><stop
         style="stop-color:#ffffff;stop-opacity:1;"
         offset="0.7345143"
         id="stop11" /><stop
         style="stop-color:#bcddff;stop-opacity:1;"
         offset="0.7345143"
         id="stop9" /><stop
         style="stop-color:#e5d0fd;stop-opacity:1;"
         offset="1"
         id="stop10" /></linearGradient><linearGradient
       id="linearGradient4"
       inkscape:collect="always"><stop
         style="stop-color:#ffcd82;stop-opacity:1;"
         offset="0"
         id="stop8" /><stop
         style="stop-color:#fba590;stop-opacity:1;"
         offset="0.50349367"
         id="stop5" /><stop
         style="stop-color:#f69897;stop-opacity:1;"
         offset="0.69964743"
         id="stop13" /><stop
         style="stop-color:#f68ca3;stop-opacity:1;"
         offset="1"
         id="stop4" /></linearGradient><linearGradient
       id="fg-5"
       x2="7.6277007"
       y2="54.53806"
       gradientTransform="matrix(1.0488088,0,0,0.95346259,0,4)"
       x1="7.6277007"
       y1="12.585706"
       gradientUnits="userSpaceOnUse"><stop
         stop-color="#ffd59b"
         id="stop3-6"
         offset="0"
         style="stop-color:#72be98;stop-opacity:1;" /><stop
         stop-color="#ffd59b"
         id="stop7-1"
         offset="1"
         style="stop-color:#43616f;stop-opacity:1;" /></linearGradient><linearGradient
       inkscape:collect="always"
       xlink:href="#linearGradient4"
       id="linearGradient5"
       x1="31.999998"
       y1="-4.51394e-06"
       x2="32"
       y2="63.999989"
       gradientUnits="userSpaceOnUse" /><linearGradient
       inkscape:collect="always"
       xlink:href="#linearGradient1"
       id="linearGradient10"
       x1="30.5"
       y1="11.499999"
       x2="30.5"
       y2="50.500004"
       gradientUnits="userSpaceOnUse" /><linearGradient
       inkscape:collect="always"
       xlink:href="#linearGradient2"
       id="linearGradient16"
       x1="3"
       y1="56"
       x2="3"
       y2="64"
       gradientUnits="userSpaceOnUse"
       gradientTransform="matrix(1,0,0,1.25,5,-16)" /><clipPath
       clipPathUnits="userSpaceOnUse"
       id="clipPath17"><g
         inkscape:label="Clip"
         id="use17" /></clipPath></defs><sodipodi:namedview
     id="namedview5"
     pagecolor="#ffffff"
     bordercolor="#000000"
     borderopacity="0.25"
     inkscape:showpageshadow="2"
     inkscape:pageopacity="0.0"
     inkscape:pagecheckerboard="0"
     inkscape:deskcolor="#d1d1d1"
     showgrid="true"
     inkscape:zoom="8.1538256"
     inkscape:cx="24.099117"
     inkscape:cy="43.905771"
     inkscape:window-width="1707"
     inkscape:window-height="995"
     inkscape:window-x="0"
     inkscape:window-y="0"
     inkscape:window-maximized="1"
     inkscape:current-layer="svg5"
     showguides="true"><inkscape:grid
       id="grid5"
       units="px"
       originx="0"
       originy="0"
       spacingx="1"
       spacingy="1"
       empcolor="#0099e5"
       empopacity="0.30196078"
       color="#0099e5"
       opacity="0.14901961"
       empspacing="8"
       enabled="true"
       visible="true" /><sodipodi:guide
       position="50.687121,16"
       orientation="0,-1"
       id="guide18"
       inkscape:locked="false" /><sodipodi:guide
       position="50.5,10"
       orientation="1,0"
       id="guide19"
       inkscape:locked="false" /></sodipodi:namedview><linearGradient
     id="bg"
     x2="0"
     y2="64"
     x1="0"
     y1="0"
     gradientUnits="userSpaceOnUse"><stop
       id="stop1"
       offset="0"
       style="stop-color:#97d4ce;stop-opacity:1;" /><stop
       id="stop6"
       offset="0.58020377"
       style="stop-color:#99cd84;stop-opacity:1;" /><stop
       offset="0.99989998"
       stop-color="#222"
       id="stop2"
       style="stop-color:#a5cf8a;stop-opacity:1;" /></linearGradient><linearGradient
     id="fg"
     x2="0"
     y2="52"
     x1="0"
     y1="8"
     gradientUnits="userSpaceOnUse"
     gradientTransform="matrix(0.94444444,0,0,0.94444444,1.6944444,-1.1111111)"><stop
       stop-color="#ffd59b"
       id="stop3"
       offset="0"
       style="stop-color:#ffffff;stop-opacity:1;" /><stop
       stop-color="#ffd59b"
       id="stop7"
       offset="1"
       style="stop-color:#f7f7f7;stop-opacity:1;" /></linearGradient><rect
     style="display:inline;fill:url(#linearGradient5);stroke-linecap:round;stroke-linejoin:round"
     id="rect4"
     width="64"
     height="63.999996"
     x="0"
     y="0"
     ry="10" /><path
     d="M 64,54 H 46.886719 C 41.409436,54 37,58.409436 37,63.886719 V 64 h 17 c 5.54,0 10,-4.46 10,-10 z"
     style="fill:url(#linearGradient16);stroke-width:1.11803;stroke-linecap:round;stroke-linejoin:round"
     id="path18" /><path
     d="m 13,43 -2,5 v 3 h 26 l 2,-5 V 43 H 22 V 16 l -7,-2 v 29 m 13,-3 7,2 V 30 h 4 c 2.518519,0 4,0 4,6 v 15 h 7 V 33 C 50,23 48.444444,23 39,23 H 28 Z"
     fill="url(#fg)"
     id="path9"
     sodipodi:nodetypes="cccccccccccccssccsscc"
     style="display:inline;fill:#8c7270;fill-opacity:0.71044302;stroke-width:0.944444"
     inkscape:label="path9" /><path
     d="m 13,43 -2,5 h 26 l 2,-5 H 22 V 16 l -7,-2 v 29 m 13,-6 7,2 V 27 h 4 c 2.518519,0 4,0 4,6 v 15 h 7 V 33 C 50,23 48.444444,23 39,23 H 28 Z"
     fill="url(#fg)"
     id="path5"
     sodipodi:nodetypes="cccccccccccssccsscc"
     style="display:inline;fill:url(#linearGradient10);fill-opacity:1;stroke-width:0.944444" /><path
     style="font-weight:bold;font-size:6.03596px;font-family:'Monaspace Argon';-inkscape-font-specification:'Monaspace Argon, Bold';fill:#ffffff;stroke-width:1.13175;stroke-linecap:round;stroke-linejoin:round"
     d="m 44.027204,61.458375 c 0,0.977825 0.476841,1.496918 1.219264,1.496918 0.419499,0 0.730351,-0.169007 0.977825,-0.419499 h 0.09356 v 0.350086 h 0.848052 v -4.61751 h -0.890304 v 1.370163 c -0.141845,-0.02716 -0.289726,-0.04225 -0.443643,-0.04225 -0.97179,0 -1.804752,0.570398 -1.804752,1.862094 z m 0.923502,-0.205223 c 0,-0.603596 0.141845,-0.811836 0.274636,-0.89634 0.135809,-0.08149 0.277654,-0.111665 0.455715,-0.111665 0.211259,0 0.404409,0.04225 0.594542,0.120719 v 1.789662 c -0.214276,0.07847 -0.416481,0.126755 -0.603596,0.126755 -0.615668,0 -0.721297,-0.519092 -0.721297,-1.029131 z M 48.98575,60.34474 c 0.08149,-0.06639 0.211259,-0.126755 0.449679,-0.126755 0.416482,0 0.64283,0.190133 0.64283,0.639812 l -0.003,0.06338 h -1.324893 c 0.01811,-0.334995 0.138827,-0.494948 0.235402,-0.576434 z m -1.10458,1.026114 c 0,1.062329 0.603596,1.587457 1.729302,1.587457 0.467787,0 0.854088,-0.09054 1.128725,-0.187115 l 0.01509,-0.633776 c -0.232385,0.07545 -0.549273,0.138828 -0.896341,0.138828 -0.787692,0 -1.032149,-0.34405 -1.092508,-0.878233 h 2.12164 v -0.419499 c 0,-0.845034 -0.38932,-1.385253 -1.276606,-1.385253 -0.842016,0 -1.729302,0.488913 -1.729302,1.777591 z m 4.533011,-1.705159 h -0.938592 c 0.23842,1.086473 0.624722,2.124658 1.264533,3.220185 h 0.796747 c 0.630758,-1.077419 1.023095,-2.15182 1.237372,-3.220185 h -0.842016 c -0.150899,0.863142 -0.4195,1.650835 -0.727334,2.305737 h -0.06941 C 52.83368,61.31653 52.562062,60.528837 52.414181,59.665695 Z"
     id="text1"
     transform="scale(1.0222521,0.97823228)"
     aria-label="dev" /></svg>
