<?xml version="1.0" encoding="UTF-8" standalone="no"?>
<svg
   width="900px"
   height="900px"
   viewBox="0 0 900 900"
   version="1.1"
   xml:space="preserve"
   id="SVGRoot"
   inkscape:version="1.4.2 (ebf0e940d0, 2025-05-08)"
   sodipodi:docname="icon.svg"
   xmlns:inkscape="http://www.inkscape.org/namespaces/inkscape"
   xmlns:sodipodi="http://sodipodi.sourceforge.net/DTD/sodipodi-0.dtd"
   xmlns="http://www.w3.org/2000/svg"
   xmlns:svg="http://www.w3.org/2000/svg"><defs
   id="defs6" />
<sodipodi:namedview
   pagecolor="#a9a9a9"
   bordercolor="#292929"
   borderopacity="1"
   inkscape:showpageshadow="2"
   inkscape:pageopacity="0.0"
   inkscape:pagecheckerboard="0"
   inkscape:deskcolor="#232323"
   id="namedview1"
   inkscape:zoom="0.82"
   inkscape:cx="450.60976"
   inkscape:cy="450"
   inkscape:window-width="1707"
   inkscape:window-height="995"
   inkscape:window-x="0"
   inkscape:window-y="0"
   inkscape:window-maximized="1"
   inkscape:current-layer="SVGRoot" />
<style
   type="text/css"
   id="style1">
g.prefab path {
  vector-effect:non-scaling-stroke;
  -inkscape-stroke:hairline;
  fill: none;
  fill-opacity: 1;
  stroke-opacity: 1;
  stroke: #00349c;
}
</style>
<path
   d="m 651.07812,507.96094 a 133.30406,133.33333 0 0 0 -12.4707,0.82031 199.95609,200 0 0 1 -46.56445,73.93359 199.95609,200 0 0 1 -73.45508,46.11133 133.30406,133.33333 0 0 0 -0.81445,12.46875 133.30406,133.33333 0 0 0 133.30468,133.33203 133.30406,133.33333 0 0 0 94.02344,-38.8164 133.30406,133.33333 0 0 0 39.2793,-94.51563 133.30406,133.33333 0 0 0 -133.30274,-133.33398 z m 0,66.66601 a 66.652028,66.666666 0 0 1 66.6504,66.66797 66.652028,66.666666 0 0 1 -19.75586,47.37305 66.652028,66.666666 0 0 1 -46.89454,19.29297 66.652028,66.666666 0 0 1 -66.65234,-66.66602 66.652028,66.666666 0 0 1 19.28711,-46.90625 66.652028,66.666666 0 0 1 47.36523,-19.76172 z"
   style="vector-effect:non-scaling-stroke;fill:#668000;stroke:#ffffff;-inkscape-stroke:hairline;stroke-opacity:0"
   id="path21" /><path
   d="m 251.16602,107.96094 a 133.30406,133.33333 0 0 0 -94.49415,39.28711 133.30406,133.33333 0 0 0 -38.81054,94.04687 133.30406,133.33333 0 0 0 133.30469,133.33203 133.30406,133.33333 0 0 0 11.8125,-0.77148 199.95609,200 0 0 1 46.2832,-73.98242 199.95609,200 0 0 1 74.42969,-46.75196 133.30406,133.33333 0 0 0 0.77734,-11.82617 133.30406,133.33333 0 0 0 -133.30273,-133.33398 z m 0,66.66601 a 66.652028,66.666666 0 0 1 66.65039,66.66797 66.652028,66.666666 0 0 1 -19.75586,47.37305 66.652028,66.666666 0 0 1 -46.89453,19.29297 66.652028,66.666666 0 0 1 -66.65235,-66.66602 66.652028,66.666666 0 0 1 19.28711,-46.90625 66.652028,66.666666 0 0 1 47.36524,-19.76172 z"
   style="fill:#445016;stroke:#ffffff;stroke-width:2;stroke-opacity:0"
   id="path20" /><path
   d="m 584.19141,441.29492 a 133.30406,133.33333 0 0 1 -0.82422,12.23828 133.30406,133.33333 0 0 1 -38.45508,82.04102 133.30406,133.33333 0 0 1 -81.56641,37.97851 133.30406,133.33333 0 0 1 -10.625,0.82813 v 41.66601 25.00391 a 199.95609,200 0 0 0 65.86719,-12.22461 199.95609,200 0 0 0 73.45508,-46.11133 199.95609,200 0 0 0 46.56445,-73.93359 199.95609,200 0 0 0 12.23633,-67.48633 z"
   style="vector-effect:non-scaling-stroke;fill:#aad400;stroke:#ffffff;-inkscape-stroke:hairline;stroke-opacity:0"
   id="path19" /><path
   d="m 517.53906,441.29492 a 66.652028,66.666666 0 0 1 -19.75781,47.14063 66.652028,66.666666 0 0 1 -45.06055,19.26562 v 66.67969 a 133.30406,133.33333 0 0 0 10.625,-0.82813 199.95609,200 0 0 1 46.10742,-73.44531 199.95609,200 0 0 1 73.91407,-46.57422 133.30406,133.33333 0 0 0 0.82422,-12.23828 z"
   style="vector-effect:non-scaling-stroke;fill:#445500;stroke:#ffffff;-inkscape-stroke:hairline;stroke-opacity:0"
   id="path18" /><path
   d="m 251.16602,841.29492 a 199.95609,200 0 0 0 199.95507,-200 199.95609,200 0 0 1 0,-0.23437 199.95609,200 0 0 1 -0.23437,0 199.95609,200 0 0 1 -67.22461,-12.06446 133.30406,133.33333 0 0 1 0.80664,12.29883 133.30406,133.33333 0 0 1 -133.30273,133.33203 133.30406,133.33333 0 0 1 -94.25977,-39.05078 l -47.13086,47.13867 a 199.95609,200 0 0 0 141.39063,58.58008 z"
   style="vector-effect:non-scaling-stroke;fill:#ddff55;stroke:#ffffff;-inkscape-stroke:hairline;stroke-opacity:0"
   id="path17" /><path
   d="m 698.20703,194.1543 a 66.652028,66.666666 0 0 0 -47.12891,-19.52735 66.652028,66.666666 0 0 0 -66.65234,66.66797 66.652028,66.666666 0 0 0 19.52149,47.13867 z"
   style="vector-effect:non-scaling-stroke;fill:#677821;stroke:#ffffff;-inkscape-stroke:hairline;stroke-opacity:0"
   id="path16" /><path
   d="M 651.07812,41.294922 A 199.95609,200 0 0 0 452.7207,216.04687 v 25.02149 25.47266 41.19726 66.67969 65.27734 1.59961 h 64.81836 66.65235 66.65234 a 199.95609,200 0 0 0 0,-0.002 199.95609,200 0 0 0 0.23437,0.002 199.95609,200 0 0 0 199.48633,-186.31836 V 227.61133 A 199.95609,200 0 0 0 792.4668,99.873047 199.95609,200 0 0 0 651.07812,41.294922 Z m 0,66.666018 a 133.30406,133.33333 0 0 1 94.25977,39.05273 l -47.13086,47.14063 -94.25976,94.27929 -11.43555,11.43946 a 199.95609,200 0 0 1 46.27148,73.94726 133.30406,133.33333 0 0 1 -81.96484,-38.24414 133.30406,133.33333 0 0 1 -38.25781,-82.28515 133.30406,133.33333 0 0 1 -0.78711,-11.9961 133.30406,133.33333 0 0 1 133.30468,-133.33398 z"
   style="vector-effect:non-scaling-stroke;fill:#ccff00;stroke:#ffffff;-inkscape-stroke:hairline;stroke-opacity:0"
   id="path15" /><path
   d="m 51.208984,441.29492 v 200 a 199.95609,200 0 0 0 58.566406,141.41992 l 47.13086,-47.13867 47.12891,-47.14258 94.25976,-94.27929 11.43555,-11.43946 35.69531,-35.70117 11.43555,-11.43945 35.69336,-35.70117 11.4375,-11.43946 46.89453,-46.90429 -0.23438,-0.23438 h -66.41601 -66.65235 -66.41796 a 199.95609,200 0 0 0 -0.23438,0 z"
   style="vector-effect:non-scaling-stroke;fill:#eeffaa;stroke:#ffffff;-inkscape-stroke:hairline;stroke-opacity:0"
   id="path14" />
</svg>
