<svg xmlns="http://www.w3.org/2000/svg" xmlns:xlink="http://www.w3.org/1999/xlink" xml:space="preserve" width="64" height="64"><defs><linearGradient id="c"><stop offset="0" style="stop-color:#96edb8;stop-opacity:1"/><stop offset="1" style="stop-color:#a5e8dd;stop-opacity:1"/></linearGradient><linearGradient id="b"><stop offset=".735" style="stop-color:#fff;stop-opacity:1"/><stop offset=".735" style="stop-color:#bcddff;stop-opacity:1"/><stop offset="1" style="stop-color:#e5d0fd;stop-opacity:1"/></linearGradient><linearGradient id="a"><stop offset="0" style="stop-color:#ffcd82;stop-opacity:1"/><stop offset=".503" style="stop-color:#fba590;stop-opacity:1"/><stop offset=".7" style="stop-color:#f69897;stop-opacity:1"/><stop offset="1" style="stop-color:#f68ca3;stop-opacity:1"/></linearGradient><linearGradient xlink:href="#a" id="d" x1="32" x2="32" y1="0" y2="64" gradientUnits="userSpaceOnUse"/><linearGradient xlink:href="#b" id="f" x1="30.5" x2="30.5" y1="11.5" y2="50.5" gradientUnits="userSpaceOnUse"/><linearGradient xlink:href="#c" id="g" x1="3" x2="3" y1="56" y2="64" gradientTransform="matrix(.7 0 0 .875 5.692 -36.092)" gradientUnits="userSpaceOnUse"/></defs><linearGradient id="e" x1="0" x2="0" y1="8" y2="52" gradientTransform="translate(1.694 -1.111)scale(.94444)" gradientUnits="userSpaceOnUse"><stop offset="0" stop-color="#ffd59b" style="stop-color:#fff;stop-opacity:1"/><stop offset="1" stop-color="#ffd59b" style="stop-color:#f7f7f7;stop-opacity:1"/></linearGradient><rect width="64" height="64" ry="10" style="display:inline;fill:url(#d);stroke-linecap:round;stroke-linejoin:round"/><path fill="url(#e)" d="m13 43-2 5v3h26l2-5v-3H22V16l-7-2v29m13-3 7 2V30h4c2.519 0 4 0 4 6v15h7V33c0-10-1.556-10-11-10H28Z" style="display:inline;fill:#8c7270;fill-opacity:.710443;stroke-width:.944444"/><path fill="url(#e)" d="m13 43-2 5h26l2-5H22V16l-7-2v29m13-6 7 2V27h4c2.519 0 4 0 4 6v15h7V33c0-10-1.556-10-11-10H28Z" style="display:inline;fill:url(#f);fill-opacity:1;stroke-width:.944444"/><path d="M35 13c-3.826-.009-7.009 3.174-7 7h15c3.878 0 7-3.122 7-7" style="display:inline;fill:url(#g);stroke-width:.782621;stroke-linecap:round;stroke-linejoin:round"/><path d="M34.377 18.04h1.052c.858 0 1.621-.344 1.621-1.593 0-1.248-.763-1.486-1.621-1.486h-1.052zm.622-.492V15.45h.434c.593 0 .966.228.966 1.05 0 .677-.198.896-.33.97-.128.074-.317.078-.53.078zm2.663.491h2.442l.061-.514h-1.88v-.795h1.547v-.487h-1.548v-.768h1.881l-.061-.514h-2.442zm3.834-3.078h-.7c.128 1.014.525 2.085 1.134 3.078h.563c.61-.993 1.002-2.064 1.13-3.078h-.647a7.5 7.5 0 0 1-.706 2.248h-.068a7.5 7.5 0 0 1-.706-2.248" aria-label="DEV" style="font-weight:700;font-stretch:expanded;font-size:4.21742px;font-family:&quot;Monaspace Argon&quot;;-inkscape-font-specification:&quot;Monaspace Argon, Bold Expanded&quot;;fill:#7e7e7e;stroke-width:.679377;stroke-linecap:round;stroke-linejoin:round"/></svg>