<svg xmlns="http://www.w3.org/2000/svg" xmlns:xlink="http://www.w3.org/1999/xlink" xml:space="preserve" id="svg5" width="64" height="64"><defs id="defs5"><linearGradient id="linearGradient10"><stop id="stop10" offset="0" style="stop-color:#f6f4d2;stop-opacity:1"/><stop id="stop5" offset=".558" style="stop-color:#d2e49c;stop-opacity:1"/><stop id="stop11" offset="1" style="stop-color:#61e4e3;stop-opacity:1"/></linearGradient><linearGradient id="linearGradient4"><stop id="stop8" offset=".005" style="stop-color:#636363;stop-opacity:1"/><stop id="stop9" offset=".338" style="stop-color:#4f4f4f;stop-opacity:1"/><stop id="stop4" offset="1" style="stop-color:#323232;stop-opacity:1"/></linearGradient><linearGradient id="fg-5" x1="7.628" x2="7.628" y1="12.586" y2="54.538" gradientTransform="matrix(1.0488 0 0 .95346 0 4)" gradientUnits="userSpaceOnUse"><stop id="stop3-6" offset="0" stop-color="#ffd59b" style="stop-color:#72be98;stop-opacity:1"/><stop id="stop7-1" offset="1" stop-color="#ffd59b" style="stop-color:#43616f;stop-opacity:1"/></linearGradient><linearGradient xlink:href="#linearGradient4" id="linearGradient5" x1="32" x2="32" y1="0" y2="64" gradientUnits="userSpaceOnUse"/><linearGradient xlink:href="#linearGradient10" id="linearGradient11" x1="30.5" x2="30.5" y1="11.5" y2="50.5" gradientUnits="userSpaceOnUse"/></defs><linearGradient id="bg" x1="0" x2="0" y1="0" y2="64" gradientUnits="userSpaceOnUse"><stop id="stop1" offset="0" style="stop-color:#97d4ce;stop-opacity:1"/><stop id="stop6" offset=".58" style="stop-color:#99cd84;stop-opacity:1"/><stop id="stop2" offset="1" stop-color="#222" style="stop-color:#a5cf8a;stop-opacity:1"/></linearGradient><linearGradient id="fg" x1="0" x2="0" y1="8" y2="52" gradientTransform="translate(1.694 -1.111)scale(.94444)" gradientUnits="userSpaceOnUse"><stop id="stop3" offset="0" stop-color="#ffd59b" style="stop-color:#fff;stop-opacity:1"/><stop id="stop7" offset="1" stop-color="#ffd59b" style="stop-color:#f7f7f7;stop-opacity:1"/></linearGradient><rect id="rect4" width="64" height="64" x="0" y="0" ry="10" style="display:inline;fill:url(#linearGradient5);stroke-linecap:round;stroke-linejoin:round"/><path id="path9" fill="url(#fg)" d="m13 43-2 5v3h26l2-5v-3H22V16l-7-2v29m13-3 7 2V30h4c2.519 0 4 0 4 6v15h7V33c0-10-1.556-10-11-10H28Z" style="display:inline;fill:#4b786f;fill-opacity:.5501616;stroke-width:.944444"/><path id="path5" fill="url(#fg)" d="m13 43-2 5h26l2-5H22V16l-7-2v29m13-6 7 2V27h4c2.519 0 4 0 4 6v15h7V33c0-10-1.556-10-11-10H28Z" style="display:inline;fill:url(#linearGradient11);fill-opacity:1;stroke-width:.944444"/></svg>