<?xml version="1.0" encoding="UTF-8" standalone="no"?>
<svg
   width="900px"
   height="900px"
   viewBox="0 0 900 900"
   version="1.1"
   xml:space="preserve"
   id="SVGRoot"
   inkscape:version="1.4.2 (ebf0e940d0, 2025-05-08)"
   sodipodi:docname="icon_small.svg"
   xmlns:inkscape="http://www.inkscape.org/namespaces/inkscape"
   xmlns:sodipodi="http://sodipodi.sourceforge.net/DTD/sodipodi-0.dtd"
   xmlns="http://www.w3.org/2000/svg"
   xmlns:svg="http://www.w3.org/2000/svg"><defs
   id="defs6" />
<sodipodi:namedview
   pagecolor="#a9a9a9"
   bordercolor="#292929"
   borderopacity="1"
   inkscape:showpageshadow="2"
   inkscape:pageopacity="0.0"
   inkscape:pagecheckerboard="0"
   inkscape:deskcolor="#232323"
   id="namedview1"
   inkscape:zoom="0.82"
   inkscape:cx="453.04878"
   inkscape:cy="451.21951"
   inkscape:window-width="1707"
   inkscape:window-height="995"
   inkscape:window-x="0"
   inkscape:window-y="0"
   inkscape:window-maximized="1"
   inkscape:current-layer="SVGRoot" />
<style
   type="text/css"
   id="style1">
g.prefab path {
  vector-effect:non-scaling-stroke;
  -inkscape-stroke:hairline;
  fill: none;
  fill-opacity: 1;
  stroke-opacity: 1;
  stroke: #00349c;
}
</style>
<path
   d="m 649.65039,507.99609 a 209.02725,203.72836 0 0 1 -131.48047,125.1836 133.30406,133.33333 0 0 0 -0.39648,8.11523 133.30406,133.33333 0 0 0 133.30468,133.33203 133.30406,133.33333 0 0 0 94.02344,-38.8164 133.30406,133.33333 0 0 0 39.2793,-94.51563 133.30406,133.33333 0 0 0 -133.30274,-133.33398 133.30406,133.33333 0 0 0 -1.42773,0.0351 z"
   style="vector-effect:non-scaling-stroke;fill:#668000;stroke:#ffffff;stroke-opacity:0;-inkscape-stroke:hairline"
   id="path15" /><path
   d="m 254.68359,374.50781 a 209.02725,203.72836 0 0 1 129.52735,-127.28711 133.30406,133.33333 0 0 0 0.25781,-5.92578 133.30406,133.33333 0 0 0 -133.30273,-133.33398 133.30406,133.33333 0 0 0 -94.49415,39.28711 133.30406,133.33333 0 0 0 -38.81054,94.04687 133.30406,133.33333 0 0 0 133.30469,133.33203 133.30406,133.33333 0 0 0 3.51757,-0.11914 z"
   style="fill:#445016;stroke:#ffffff;stroke-width:2;stroke-opacity:0"
   id="path10" /><path
   d="m 306.8418,585.60547 -8.54688,8.54883 -94.25976,94.27929 -47.12891,47.14258 -47.13086,47.13867 A 199.95609,200 0 0 0 251.16602,841.29492 199.95609,200 0 0 0 451.10937,643.41797 209.02725,203.72836 0 0 1 383.97266,632.08984 209.02725,203.72836 0 0 1 306.8418,585.60547 Z"
   style="vector-effect:non-scaling-stroke;fill:#ddff55;stroke:#ffffff;stroke-opacity:0;-inkscape-stroke:hairline"
   id="path16" /><path
   d="M 651.07812,41.294922 A 199.95609,200 0 0 0 452.7207,216.04687 v 19.91993 5.10156 25.47266 41.19726 66.67969 65.27734 1.59961 h 64.81836 66.65235 66.65234 a 199.95609,200 0 0 0 0,-0.002 199.95609,200 0 0 0 0.23437,0.002 199.95609,200 0 0 0 10.66602,-0.28515 199.95609,200 0 0 0 188.82031,-186.03321 V 227.61133 A 199.95609,200 0 0 0 792.4668,99.873047 199.95609,200 0 0 0 651.07812,41.294922 Z m 0,66.666018 a 133.30406,133.33333 0 0 1 94.25977,39.05273 l -146.73828,146.77149 -6.08789,6.08789 -35.69336,35.70312 a 133.30406,133.33333 0 0 1 -38.25781,-82.28515 133.30406,133.33333 0 0 1 -0.59961,-7.14649 133.30406,133.33333 0 0 1 -0.1875,-4.84961 133.30406,133.33333 0 0 1 133.30468,-133.33398 z"
   style="vector-effect:non-scaling-stroke;fill:#ccff00;stroke:#ffffff;stroke-opacity:0;-inkscape-stroke:hairline"
   id="path11" /><path
   d="m 51.208984,441.29492 v 200 a 199.95609,200 0 0 0 58.566406,141.41992 l 47.13086,-47.13867 47.12891,-47.14258 94.25976,-94.27929 8.54688,-8.54883 2.88867,-2.89063 35.69531,-35.70117 11.43555,-11.43945 35.69336,-35.70117 11.4375,-11.43946 46.89453,-46.90429 -0.23438,-0.23438 h -66.41601 -66.65235 -66.41796 a 199.95609,200 0 0 0 -0.23438,0 h -7.23242 z"
   style="vector-effect:non-scaling-stroke;fill:#eeffaa;stroke:#ffffff;stroke-opacity:0;-inkscape-stroke:hairline"
   id="path12" />
</svg>
