<svg xmlns="http://www.w3.org/2000/svg" xmlns:xlink="http://www.w3.org/1999/xlink" xml:space="preserve" id="svg5" width="64" height="64"><defs id="defs5"><linearGradient id="linearGradient2"><stop id="stop12" offset="0" style="stop-color:#6ee1aa;stop-opacity:1"/><stop id="stop14" offset="1" style="stop-color:#4fbbea;stop-opacity:1"/></linearGradient><linearGradient id="linearGradient1"><stop id="stop11" offset=".735" style="stop-color:#fff;stop-opacity:1"/><stop id="stop9" offset=".735" style="stop-color:#bcddff;stop-opacity:1"/><stop id="stop10" offset="1" style="stop-color:#e5d0fd;stop-opacity:1"/></linearGradient><linearGradient id="linearGradient4"><stop id="stop8" offset="0" style="stop-color:#ffcd82;stop-opacity:1"/><stop id="stop5" offset=".503" style="stop-color:#fba590;stop-opacity:1"/><stop id="stop13" offset=".7" style="stop-color:#f69897;stop-opacity:1"/><stop id="stop4" offset="1" style="stop-color:#f68ca3;stop-opacity:1"/></linearGradient><linearGradient id="fg-5" x1="7.628" x2="7.628" y1="12.586" y2="54.538" gradientTransform="matrix(1.0488 0 0 .95346 0 4)" gradientUnits="userSpaceOnUse"><stop id="stop3-6" offset="0" stop-color="#ffd59b" style="stop-color:#72be98;stop-opacity:1"/><stop id="stop7-1" offset="1" stop-color="#ffd59b" style="stop-color:#43616f;stop-opacity:1"/></linearGradient><linearGradient xlink:href="#linearGradient4" id="linearGradient5" x1="32" x2="32" y1="0" y2="64" gradientUnits="userSpaceOnUse"/><linearGradient xlink:href="#linearGradient1" id="linearGradient10" x1="30.5" x2="30.5" y1="11.5" y2="50.5" gradientUnits="userSpaceOnUse"/><linearGradient xlink:href="#linearGradient2" id="linearGradient16" x1="3" x2="3" y1="56" y2="64" gradientTransform="matrix(1 0 0 1.25 5 -16)" gradientUnits="userSpaceOnUse"/><clipPath id="clipPath17" clipPathUnits="userSpaceOnUse"/></defs><linearGradient id="bg" x1="0" x2="0" y1="0" y2="64" gradientUnits="userSpaceOnUse"><stop id="stop1" offset="0" style="stop-color:#97d4ce;stop-opacity:1"/><stop id="stop6" offset=".58" style="stop-color:#99cd84;stop-opacity:1"/><stop id="stop2" offset="1" stop-color="#222" style="stop-color:#a5cf8a;stop-opacity:1"/></linearGradient><linearGradient id="fg" x1="0" x2="0" y1="8" y2="52" gradientTransform="translate(1.694 -1.111)scale(.94444)" gradientUnits="userSpaceOnUse"><stop id="stop3" offset="0" stop-color="#ffd59b" style="stop-color:#fff;stop-opacity:1"/><stop id="stop7" offset="1" stop-color="#ffd59b" style="stop-color:#f7f7f7;stop-opacity:1"/></linearGradient><rect id="rect4" width="64" height="64" x="0" y="0" ry="10" style="display:inline;fill:url(#linearGradient5);stroke-linecap:round;stroke-linejoin:round"/><path id="path18" d="M64 54H46.887A9.865 9.865 0 0 0 37 63.887V64h17c5.54 0 10-4.46 10-10" style="fill:url(#linearGradient16);stroke-width:1.11803;stroke-linecap:round;stroke-linejoin:round"/><path id="path9" fill="url(#fg)" d="m13 43-2 5v3h26l2-5v-3H22V16l-7-2v29m13-3 7 2V30h4c2.519 0 4 0 4 6v15h7V33c0-10-1.556-10-11-10H28Z" style="display:inline;fill:#8c7270;fill-opacity:.71044302;stroke-width:.944444"/><path id="path5" fill="url(#fg)" d="m13 43-2 5h26l2-5H22V16l-7-2v29m13-6 7 2V27h4c2.519 0 4 0 4 6v15h7V33c0-10-1.556-10-11-10H28Z" style="display:inline;fill:url(#linearGradient10);fill-opacity:1;stroke-width:.944444"/><path id="text1" d="M44.027 61.458c0 .978.477 1.497 1.22 1.497.419 0 .73-.169.977-.42h.094v.35h.848v-4.617h-.89v1.37a2.4 2.4 0 0 0-.444-.042c-.972 0-1.805.57-1.805 1.862m.924-.205c0-.603.142-.812.274-.896a.84.84 0 0 1 .456-.112c.211 0 .404.042.595.12v1.79a1.8 1.8 0 0 1-.604.127c-.616 0-.721-.519-.721-1.029m4.035-.908c.081-.067.211-.127.45-.127.416 0 .642.19.642.64l-.003.063H48.75c.018-.335.14-.495.236-.576M47.88 61.37c0 1.062.604 1.587 1.73 1.587.467 0 .854-.09 1.128-.187l.015-.634a3 3 0 0 1-.896.14c-.788 0-1.032-.345-1.093-.879h2.122v-.42c0-.845-.39-1.385-1.277-1.385-.842 0-1.729.49-1.729 1.778m4.533-1.705h-.938a10.8 10.8 0 0 0 1.264 3.22h.797a10.4 10.4 0 0 0 1.237-3.22h-.842c-.15.863-.42 1.65-.727 2.305h-.07a9.3 9.3 0 0 1-.72-2.305" aria-label="dev" style="font-weight:700;font-size:6.03596px;font-family:&quot;Monaspace Argon&quot;;-inkscape-font-specification:&quot;Monaspace Argon, Bold&quot;;fill:#fff;stroke-width:1.13175;stroke-linecap:round;stroke-linejoin:round" transform="scale(1.02225 .97823)"/></svg>