<?xml version="1.0" encoding="UTF-8" standalone="no"?>
<svg
   width="64"
   height="64"
   version="1.1"
   id="svg5"
   sodipodi:docname="icon_dark_bold.svg"
   inkscape:version="1.4.3 (0d15f75042, 2025-12-25)"
   xmlns:inkscape="http://www.inkscape.org/namespaces/inkscape"
   xmlns:sodipodi="http://sodipodi.sourceforge.net/DTD/sodipodi-0.dtd"
   xmlns="http://www.w3.org/2000/svg"
   xmlns:svg="http://www.w3.org/2000/svg">
  <defs
     id="defs5" />
  <sodipodi:namedview
     id="namedview5"
     pagecolor="#ffffff"
     bordercolor="#000000"
     borderopacity="0.25"
     inkscape:showpageshadow="2"
     inkscape:pageopacity="0.0"
     inkscape:pagecheckerboard="0"
     inkscape:deskcolor="#d1d1d1"
     showgrid="true"
     inkscape:zoom="5.765625"
     inkscape:cx="13.094851"
     inkscape:cy="24.628726"
     inkscape:window-width="1707"
     inkscape:window-height="995"
     inkscape:window-x="0"
     inkscape:window-y="0"
     inkscape:window-maximized="1"
     inkscape:current-layer="svg5">
    <inkscape:grid
       id="grid5"
       units="px"
       originx="0"
       originy="0"
       spacingx="4"
       spacingy="4"
       empcolor="#0099e5"
       empopacity="0.30196078"
       color="#0099e5"
       opacity="0.14901961"
       empspacing="5"
       enabled="true"
       visible="true" />
  </sodipodi:namedview>
  <linearGradient
     id="bg"
     x2="0"
     y2="64"
     x1="0"
     y1="0"
     gradientUnits="userSpaceOnUse">
    <stop
       id="stop1"
       offset="0"
       style="stop-color:#787878;stop-opacity:1;" />
    <stop
       id="stop5"
       offset="0.26186821"
       style="stop-color:#505050;stop-opacity:1;" />
    <stop
       id="stop6"
       offset="0.77586275"
       style="stop-color:#464646;stop-opacity:1;" />
    <stop
       offset="0.99989998"
       stop-color="#222"
       id="stop2"
       style="stop-color:#5a5a5a;stop-opacity:1;" />
  </linearGradient>
  <linearGradient
     id="fg"
     x2="0%"
     y2="100%">
    <stop
       stop-color="#ffd59b"
       id="stop3"
       offset="0"
       style="stop-color:#f0dfcf;stop-opacity:1;" />
    <stop
       stop-color="#ffd59b"
       id="stop7"
       offset="1"
       style="stop-color:#f4b797;stop-opacity:1;" />
  </linearGradient>
  <path
     d="m 0,32 v 20 c 0,8 4,12 12,12 h 40 c 8,0 12,-4 12,-12 V 12 C 64,4 60,0 52,0 H 12 C 4,0 0,4 0,12 Z"
     fill="url(#bg)"
     id="path4"
     style="fill:url(#bg)"
     sodipodi:nodetypes="cssssssssc" />
  <path
     d="m 12,12 v 28 c 0,5.333333 -1.333333,9.333333 -4,12 v 0 H 36 V 44 H 20 V 12 Z m 16,8 c 0,8 -1.333333,14.666667 -4,20 l 12,-4 v -8 h 4 c 2.666667,0 4,1.333333 4,4 v 20 h 8 V 28 c 0,-5.333333 -2.666667,-8 -8,-8 z"
     fill="url(#fg)"
     id="path5"
     sodipodi:nodetypes="cssccccccccccssccssc" />
</svg>
